<?xml version="1.0" standalone="no"?>
<!DOCTYPE svg PUBLIC "-//W3C//DTD SVG 20010904//EN"
 "http://www.w3.org/TR/2001/REC-SVG-20010904/DTD/svg10.dtd">
<svg version="1.0" xmlns="http://www.w3.org/2000/svg"
 width="256.000000pt" height="256.000000pt" viewBox="0 0 256.000000 256.000000"
 preserveAspectRatio="xMidYMid meet">
<metadata>
Created by potrace 1.14, written by Peter Selinger 2001-2017
</metadata>
<g transform="translate(0.000000,256.000000) scale(0.100000,-0.100000)"
fill="#000000" stroke="none">
<path d="M1005 2343 c-22 -2 -98 -13 -168 -23 -124 -19 -130 -21 -178 -61 -35
-30 -49 -49 -49 -68 -1 -86 42 -1725 46 -1768 l5 -53 55 0 c41 0 54 -4 54 -15
0 -11 11 -15 38 -15 20 -1 82 -5 137 -9 79 -7 106 -5 128 6 l27 14 0 315 0
316 73 -7 c39 -3 83 -8 97 -11 21 -4 60 -60 220 -320 169 -272 199 -316 225
-323 17 -4 34 -5 39 0 5 5 15 1 21 -8 22 -30 55 -25 139 24 55 32 117 82 190
154 l110 107 -19 28 c-31 49 -154 193 -263 311 l-104 112 31 81 c88 226 143
639 126 946 -7 135 -16 164 -49 164 -8 0 -16 17 -20 39 l-6 38 -67 7 c-217 20
-333 26 -553 24 -135 -1 -263 -3 -285 -5z m674 -64 c189 -15 229 -31 51 -21
-228 12 -601 6 -745 -12 -170 -22 -194 -29 -233 -69 l-33 -34 15 -564 c9 -310
18 -696 22 -857 l7 -292 -26 0 c-27 0 -27 1 -27 73 0 39 -9 436 -21 881 l-21
808 24 25 c26 25 100 42 268 62 112 13 551 13 719 0z m-355 -665 c8 -20 8
-182 0 -210 -5 -19 -17 -22 -118 -33 -62 -6 -127 -11 -144 -11 l-32 0 0 98 c0
53 3 114 6 135 l7 37 137 0 c117 0 139 -2 144 -16z m110 -36 c7 -67 8 -192 0
-239 l-6 -36 -99 -12 c-115 -13 -258 -14 -277 -3 -7 5 58 15 149 24 109 11
164 20 170 29 13 21 22 135 17 215 -5 71 -4 74 17 74 19 0 23 -7 29 -52z m120
-907 c97 -156 175 -286 172 -288 -4 -4 -356 561 -356 573 0 12 2 9 184 -285z"/>
</g>
</svg>
